<svg width="64" height="65" viewBox="0 0 64 65" fill="none" xmlns="http://www.w3.org/2000/svg">
<path d="M29.3333 40.9375C17.5513 40.9375 8 37.3559 8 32.9375" stroke="black" stroke-width="4" stroke-linecap="round"/>
<path d="M50.6667 14.2709V31.6042M8 14.2709V51.6042C8 56.0226 17.5513 59.6042 29.3333 59.6042C29.7811 59.6042 30.2256 59.5991 30.6667 59.5887" stroke="black" stroke-width="4" stroke-linecap="round"/>
<path d="M29.3333 22.2709C41.1154 22.2709 50.6667 18.6892 50.6667 14.2709C50.6667 9.8526 41.1154 6.27087 29.3333 6.27087C17.5513 6.27087 8 9.8526 8 14.2709C8 18.6892 17.5513 22.2709 29.3333 22.2709Z" stroke="black" stroke-width="4"/>
<path d="M18.667 22.2709V27.6042" stroke="black" stroke-width="4" stroke-linecap="round"/>
<path d="M18.667 40.9375V46.2708" stroke="black" stroke-width="4" stroke-linecap="round"/>
<path d="M45.3337 45.3821V48.9375M45.3337 48.9375V52.493M45.3337 48.9375H48.8891M45.3337 48.9375H41.7782M56.0003 48.9375C56.0003 54.8285 51.2246 59.6042 45.3337 59.6042C39.4427 59.6042 34.667 54.8285 34.667 48.9375C34.667 43.0466 39.4427 38.2709 45.3337 38.2709C51.2246 38.2709 56.0003 43.0466 56.0003 48.9375Z" stroke="black" stroke-width="4" stroke-linecap="round"/>
</svg>
