<svg width="56" height="56" viewBox="0 0 56 56" fill="none" xmlns="http://www.w3.org/2000/svg">
<mask id="mask0_45_298" style="mask-type:alpha" maskUnits="userSpaceOnUse" x="0" y="0" width="56" height="56">
<rect width="56" height="56" transform="matrix(1 0 0 -1 0 56)" fill="#D9D9D9"/>
</mask>
<g mask="url(#mask0_45_298)">
<path d="M13.3 14L18.6667 23.3333C16.1 23.3333 13.9028 24.2472 12.075 26.075C10.2472 27.9028 9.33333 30.1 9.33333 32.6667C9.33333 35.2333 10.2472 37.4306 12.075 39.2583C13.9028 41.0861 16.1 42 18.6667 42C21.2333 42 23.4306 41.0861 25.2583 39.2583C27.0861 37.4306 28 35.2333 28 32.6667C28 31.7722 27.8931 30.9458 27.6792 30.1875C27.4653 29.4292 27.1444 28.7 26.7167 28L18.6667 14H13.3ZM34.3 14L39.6667 23.3333C37.1 23.3333 34.9028 24.2472 33.075 26.075C31.2472 27.9028 30.3333 30.1 30.3333 32.6667C30.3333 35.2333 31.2472 37.4306 33.075 39.2583C34.9028 41.0861 37.1 42 39.6667 42C42.2333 42 44.4305 41.0861 46.2583 39.2583C48.0861 37.4306 49 35.2333 49 32.6667C49 31.7722 48.8931 30.9458 48.6792 30.1875C48.4653 29.4292 48.1444 28.7 47.7167 28L39.6667 14H34.3ZM18.6667 29.1667C19.6389 29.1667 20.4653 29.5069 21.1458 30.1875C21.8264 30.8681 22.1667 31.6944 22.1667 32.6667C22.1667 33.6389 21.8264 34.4653 21.1458 35.1458C20.4653 35.8264 19.6389 36.1667 18.6667 36.1667C17.6944 36.1667 16.8681 35.8264 16.1875 35.1458C15.5069 34.4653 15.1667 33.6389 15.1667 32.6667C15.1667 31.6944 15.5069 30.8681 16.1875 30.1875C16.8681 29.5069 17.6944 29.1667 18.6667 29.1667ZM39.6667 29.1667C40.6389 29.1667 41.4653 29.5069 42.1458 30.1875C42.8264 30.8681 43.1667 31.6944 43.1667 32.6667C43.1667 33.6389 42.8264 34.4653 42.1458 35.1458C41.4653 35.8264 40.6389 36.1667 39.6667 36.1667C38.6944 36.1667 37.868 35.8264 37.1875 35.1458C36.5069 34.4653 36.1667 33.6389 36.1667 32.6667C36.1667 31.6944 36.5069 30.8681 37.1875 30.1875C37.868 29.5069 38.6944 29.1667 39.6667 29.1667Z" fill="#333333"/>
</g>
</svg>
