<svg width="64" height="65" viewBox="0 0 64 65" fill="none" xmlns="http://www.w3.org/2000/svg">
<path d="M43.4397 7.60413H21.3793C18.3288 7.60413 16.8036 7.60413 15.6687 8.38658C14.5339 9.16901 14.0853 10.5298 13.1882 13.2514L7.03541 31.918C5.47402 36.6551 4.69333 39.0236 5.97792 40.6473C7.2625 42.2708 9.91714 42.2708 15.2265 42.2708H37.2869C40.3373 42.2708 41.8623 42.2708 42.9973 41.4884C44.1322 40.706 44.5807 39.3452 45.4778 36.6236L51.6306 17.9568C53.1919 13.2198 53.9727 10.8513 52.6882 9.22773C51.4034 7.60413 48.7487 7.60413 43.4397 7.60413Z" stroke="black" stroke-width="4" stroke-linecap="round" stroke-linejoin="round"/>
<path d="M58.667 16.9375L50.5542 41.5051C49.3716 45.087 48.7801 46.8779 47.2836 47.9078C45.7873 48.9374 43.7764 48.9374 39.7542 48.9374H10.667" stroke="black" stroke-width="4" stroke-linecap="round" stroke-linejoin="round"/>
<path d="M12 19.6041H50.6666M46.6666 30.2708H8" stroke="black" stroke-width="4" stroke-linecap="round" stroke-linejoin="round"/>
<path d="M29.3333 50.2709V58.2709M29.3333 58.2709H34.6666M29.3333 58.2709H24" stroke="black" stroke-width="4" stroke-linecap="round" stroke-linejoin="round"/>
<path d="M41.3329 7.60413H27.9996L17.333 42.2708H30.6663L41.3329 7.60413Z" stroke="black" stroke-width="4" stroke-linecap="round" stroke-linejoin="round"/>
</svg>
