<svg width="65" height="65" viewBox="0 0 65 65" fill="none" xmlns="http://www.w3.org/2000/svg">
<path d="M37.8337 29.9145C37.8337 32.8625 35.4459 35.2521 32.5003 35.2521C29.5547 35.2521 27.167 32.8625 27.167 29.9145C27.167 26.9665 29.5547 24.5768 32.5003 24.5768C35.4459 24.5768 37.8337 26.9665 37.8337 29.9145Z" stroke="black" stroke-width="4"/>
<path d="M37.8089 29.4291L53.8337 39.2517C51.6246 43.0805 46.7318 44.3923 42.9054 42.1819L31.7998 35.2008" stroke="black" stroke-width="4" stroke-linecap="round" stroke-linejoin="round"/>
<path d="M36.4565 26.283V7.25134C32.0381 7.25124 28.5439 10.8361 28.5439 15.257C28.5439 15.257 28.5439 21.9771 28.5439 26.283" stroke="black" stroke-width="4" stroke-linecap="round" stroke-linejoin="round"/>
<path d="M27.1857 29.4349L11.167 39.2525C13.3761 43.0813 18.2689 44.3931 22.0952 42.1827L33.1982 35.2048" stroke="black" stroke-width="4" stroke-linecap="round" stroke-linejoin="round"/>
<path d="M36.3675 45.9225L37.2209 51.315C37.8235 55.5942 38.1249 57.734 37.4462 59.1657C36.7673 60.5974 35.4515 60.5977 32.8201 60.5977H32.1806C29.5491 60.5977 28.2334 60.5974 27.5545 59.1657C26.8757 57.734 27.1771 55.5942 27.7798 51.315L28.6331 45.9225" stroke="black" stroke-width="4" stroke-linecap="round" stroke-linejoin="round"/>
</svg>
